<svg xmlns="http://www.w3.org/2000/svg" xmlns:xlink="http://www.w3.org/1999/xlink" width="500" zoomAndPan="magnify" viewBox="0 0 375 374.999991" height="500" preserveAspectRatio="xMidYMid meet" version="1.0"><defs><clipPath id="8ac8c357ce"><path d="M 170 69 L 370.570312 69 L 370.570312 246 L 170 246 Z M 170 69 " clip-rule="nonzero"/></clipPath><clipPath id="c7c9230a98"><path d="M 4.570312 71 L 271 71 L 271 306.34375 L 4.570312 306.34375 Z M 4.570312 71 " clip-rule="nonzero"/></clipPath></defs><g clip-path="url(#8ac8c357ce)"><path fill="#38b6ff" d="M 270.5 69.109375 C 325.660156 69.109375 370.429688 104.746094 370.429688 148.722656 C 370.429688 167.417969 362.199219 184.042969 348.761719 198.226562 C 343.34375 203.929688 340.699219 212.082031 340.699219 220.5625 C 340.699219 230.222656 344.628906 239.003906 350.953125 245.328125 C 335.351562 242.894531 322.070312 233.390625 314.488281 220.210938 C 301.222656 225.40625 286.296875 228.328125 270.503906 228.328125 C 215.355469 228.328125 170.621094 192.671875 170.621094 148.726562 C 170.621094 104.742188 215.355469 69.109375 270.5 69.109375 Z M 270.5 69.109375 " fill-opacity="1" fill-rule="nonzero"/></g><g clip-path="url(#c7c9230a98)"><path fill="#2563eb" d="M 137.574219 71.460938 C 64.125 71.460938 4.570312 118.921875 4.570312 177.441406 C 4.570312 202.363281 15.527344 224.457031 33.390625 243.351562 C 40.597656 250.976562 44.152344 261.808594 44.152344 273.113281 C 44.152344 285.96875 38.921875 297.625 30.480469 306.070312 C 51.265625 302.820312 68.925781 290.183594 79.042969 272.664062 C 96.714844 279.574219 116.554688 283.457031 137.574219 283.457031 C 211.042969 283.457031 270.601562 236.003906 270.601562 177.441406 C 270.601562 118.917969 211.042969 71.460938 137.574219 71.460938 Z M 137.574219 71.460938 " fill-opacity="1" fill-rule="nonzero"/></g><path fill="#1677d8" d="M 270.601562 177.441406 C 270.601562 139.261719 245.234375 105.800781 207.199219 87.148438 C 184.875 101.746094 170.621094 123.90625 170.621094 148.726562 C 170.621094 188.457031 207.171875 221.402344 254.933594 227.371094 C 264.910156 212.492188 270.601562 195.492188 270.601562 177.441406 Z M 270.601562 177.441406 " fill-opacity="1" fill-rule="nonzero"/></svg>