<svg version="1.2" xmlns="http://www.w3.org/2000/svg" viewBox="0 0 375 376" width="375" height="376">
	<title>fav</title>
	<defs>
		<clipPath clipPathUnits="userSpaceOnUse" id="cp1">
			<path d="m170 70h200.57v177h-200.57z"/>
		</clipPath>
		<clipPath clipPathUnits="userSpaceOnUse" id="cp2">
			<path d="m4.57 72h266.43v235.34h-266.43z"/>
		</clipPath>
	</defs>
	<style>
		.s0 { fill: #38b6ff } 
		.s1 { fill: #ffffff } 
		.s2 { fill: #efecec } 
	</style>
	<g id="Clip-Path" clip-path="url(#cp1)">
		<g>
			<path class="s0" d="m270.5 70.1c55.2 0 99.9 35.6 99.9 79.6 0 18.7-8.2 35.3-21.6 49.5-5.5 5.7-8.1 13.9-8.1 22.4 0 9.6 3.9 18.4 10.3 24.7-15.6-2.4-28.9-11.9-36.5-25.1-13.3 5.2-28.2 8.1-44 8.1-55.1 0-99.9-35.6-99.9-79.6 0-44 44.8-79.6 99.9-79.6z"/>
		</g>
	</g>
	<g id="Clip-Path" clip-path="url(#cp2)">
		<g>
			<path class="s1" d="m137.6 72.5c-73.5 0-133 47.4-133 105.9 0 25 10.9 47.1 28.8 66 7.2 7.6 10.8 18.4 10.8 29.7 0 12.9-5.3 24.5-13.7 33 20.8-3.3 38.4-15.9 48.5-33.4 17.7 6.9 37.6 10.8 58.6 10.8 73.4 0 133-47.5 133-106.1 0-58.5-59.6-105.9-133-105.9z"/>
		</g>
	</g>
	<path class="s2" d="m270.6 178.4c0-38.1-25.4-71.6-63.4-90.3-22.3 14.6-36.6 36.8-36.6 61.6 0 39.8 36.6 72.7 84.3 78.7 10-14.9 15.7-31.9 15.7-50z"/>
</svg>