<svg version="1.0" preserveAspectRatio="xMidYMid meet" height="600" viewBox="0 0 1200 449.999984" zoomAndPan="magnify" width="1600" xmlns:xlink="http://www.w3.org/1999/xlink" xmlns="http://www.w3.org/2000/svg"><defs><g></g><clipPath id="fdabb550f3"><path clip-rule="nonzero" d="M 47.335938 124 L 308 124 L 308 378.085938 L 47.335938 378.085938 Z M 47.335938 124"></path></clipPath><clipPath id="ff1d495082"><path clip-rule="nonzero" d="M 177.742188 71.707031 L 455.90625 71.707031 L 455.90625 357.332031 L 177.742188 357.332031 Z M 177.742188 71.707031"></path></clipPath></defs><rect fill-opacity="1" height="539.99998" y="-44.999998" fill="#ffffff" width="1440" x="-120"></rect><rect fill-opacity="1" height="539.99998" y="-44.999998" fill="#ffffff" width="1440" x="-120"></rect><g clip-path="url(#fdabb550f3)"><path fill-rule="nonzero" fill-opacity="1" d="M 251.496094 298.828125 C 255.390625 294.332031 259.175781 289.773438 262.699219 285.039062 C 266.207031 280.296875 269.550781 275.460938 272.589844 270.464844 C 275.644531 265.476562 278.441406 260.363281 280.894531 255.113281 C 283.378906 249.878906 285.546875 244.519531 287.351562 239.070312 C 291.023438 228.179688 293.242188 216.917969 294.148438 205.59375 C 294.371094 202.757812 294.507812 199.921875 294.558594 197.082031 L 294.578125 196.019531 L 294.582031 194.988281 C 294.574219 194.371094 294.558594 193.679688 294.53125 193.03125 C 294.480469 191.710938 294.386719 190.398438 294.238281 189.097656 C 293.652344 183.894531 292.273438 178.859375 290.136719 174.214844 C 287.992188 169.574219 285.160156 165.292969 281.707031 161.574219 C 278.257812 157.855469 274.222656 154.695312 269.820312 152.199219 C 261.027344 147.125 250.753906 144.78125 240.632812 145.214844 C 230.484375 145.578125 220.496094 148.742188 211.589844 153.972656 C 202.632812 159.15625 194.722656 166.398438 188.042969 174.800781 L 180.140625 184.742188 L 171.53125 175.003906 C 165.820312 168.546875 159.4375 162.839844 152.457031 158.328125 C 148.96875 156.074219 145.335938 154.113281 141.597656 152.511719 C 137.871094 150.882812 134.03125 149.601562 130.136719 148.714844 C 122.351562 146.9375 114.316406 146.765625 106.707031 148.339844 C 99.097656 149.851562 91.898438 153.097656 85.957031 157.839844 C 80.007812 162.574219 75.355469 168.75 72.484375 175.726562 C 71.046875 179.222656 70.0625 182.917969 69.542969 186.730469 C 69.285156 188.636719 69.136719 190.570312 69.105469 192.519531 C 69.089844 193.496094 69.097656 194.472656 69.136719 195.457031 L 69.175781 196.191406 L 69.222656 197.074219 L 69.324219 198.605469 C 69.933594 207.089844 71.667969 215.601562 74.347656 223.90625 C 77.042969 232.210938 80.5625 240.355469 84.800781 248.1875 C 89.039062 256.03125 93.996094 263.554688 99.398438 270.804688 C 104.824219 278.042969 110.820312 284.90625 117.148438 291.503906 C 123.476562 298.105469 130.253906 304.324219 137.296875 310.269531 C 144.335938 316.234375 151.734375 321.808594 159.328125 327.152344 C 174.542969 337.804688 190.738281 347.230469 207.527344 355.65625 C 215.929688 359.867188 224.484375 363.804688 233.164062 367.535156 C 237.511719 369.378906 241.867188 371.222656 246.269531 372.972656 C 250.667969 374.722656 255.097656 376.40625 259.542969 378.089844 C 254.882812 377.175781 250.242188 376.136719 245.617188 375.015625 C 240.996094 373.898438 236.375 372.734375 231.792969 371.414062 C 222.613281 368.828125 213.527344 365.863281 204.539062 362.550781 C 200.058594 360.882812 195.59375 359.140625 191.15625 357.300781 C 186.734375 355.453125 182.339844 353.503906 177.984375 351.46875 C 169.253906 347.421875 160.726562 342.917969 152.359375 338.0625 C 143.996094 333.207031 135.878906 327.882812 127.988281 322.1875 C 120.113281 316.472656 112.550781 310.273438 105.3125 303.660156 C 98.066406 297.050781 91.269531 289.898438 84.90625 282.3125 C 78.546875 274.722656 72.730469 266.601562 67.605469 257.976562 C 62.480469 249.355469 58.019531 240.226562 54.628906 230.589844 C 51.222656 220.972656 48.804688 210.867188 47.765625 200.472656 L 47.59375 198.460938 L 47.460938 196.539062 C 47.378906 195.15625 47.34375 193.769531 47.335938 192.378906 C 47.335938 189.59375 47.496094 186.792969 47.824219 184 C 48.480469 178.417969 49.839844 172.855469 51.90625 167.554688 C 53.972656 162.25 56.726562 157.1875 60.121094 152.597656 C 63.511719 148.011719 67.496094 143.882812 71.914062 140.324219 C 80.746094 133.195312 91.285156 128.398438 102.234375 126.183594 C 113.199219 123.988281 124.527344 124.351562 135.1875 126.851562 C 140.519531 128.097656 145.6875 129.863281 150.621094 132.058594 C 155.550781 134.273438 160.230469 136.917969 164.644531 139.878906 C 173.476562 145.820312 181.199219 153.015625 187.871094 160.875 L 171.359375 161.078125 C 179.703125 151.1875 189.792969 142.367188 201.574219 136.003906 C 213.324219 129.664062 226.789062 125.976562 240.378906 126.054688 C 253.945312 126.132812 267.519531 130.023438 278.917969 137.421875 C 284.601562 141.136719 289.726562 145.714844 294.011719 150.976562 C 298.289062 156.242188 301.753906 162.183594 304.082031 168.519531 C 306.433594 174.847656 307.714844 181.515625 307.953125 188.132812 C 308.015625 189.785156 308.011719 191.4375 307.953125 193.082031 C 307.921875 193.914062 307.871094 194.703125 307.804688 195.566406 L 307.699219 196.753906 L 307.578125 197.90625 C 307.261719 200.980469 306.851562 204.046875 306.347656 207.09375 C 304.378906 219.300781 300.753906 231.203125 295.730469 242.367188 C 293.195312 247.941406 290.320312 253.335938 287.136719 258.507812 C 283.929688 263.671875 280.441406 268.625 276.683594 273.339844 C 272.917969 278.042969 268.929688 282.535156 264.695312 286.765625 C 260.476562 291.003906 256.089844 295.046875 251.496094 298.828125" fill="#fb7400"></path></g><g clip-path="url(#ff1d495082)"><path fill-rule="nonzero" fill-opacity="1" d="M 431.023438 152.207031 C 431 152.042969 430.972656 151.878906 430.945312 151.714844 C 428.019531 133.445312 418.699219 116.542969 403.320312 105.925781 C 401.316406 104.539062 399.230469 103.269531 397.074219 102.136719 C 396.992188 102.089844 396.910156 102.046875 396.828125 102.003906 C 378.921875 92.652344 356.925781 92.121094 338.113281 99.476562 C 324.808594 104.675781 311.867188 113.761719 297.707031 111.890625 C 284.765625 110.179688 275.007812 99.808594 264.082031 92.664062 C 238.289062 75.800781 201.679688 77.671875 177.742188 97.082031 C 178.414062 96.539062 179 95.476562 179.578125 94.78125 C 180.25 93.964844 180.9375 93.164062 181.648438 92.378906 C 183.050781 90.832031 184.53125 89.347656 186.105469 87.96875 C 189.339844 85.132812 192.972656 82.882812 196.847656 81.027344 C 199.695312 79.660156 202.648438 78.511719 205.652344 77.535156 C 208.742188 76.535156 211.902344 75.800781 215.117188 75.335938 C 231.378906 72.992188 248.5 76.136719 262.578125 84.710938 C 271.363281 90.0625 279.582031 97.554688 289.828125 98.472656 C 302.328125 99.59375 313.128906 90.671875 323.882812 84.195312 C 346.105469 70.8125 374.347656 67.714844 398.492188 77.203125 C 426.910156 88.375 438.613281 106.929688 443.503906 114.925781 C 472.324219 162.011719 446.730469 218.742188 415.40625 257.371094 C 410.96875 262.84375 406.3125 268.136719 401.472656 273.257812 C 387.226562 288.347656 371.828125 302.328125 355.632812 315.289062 C 339.875 327.898438 323.320312 340.589844 305.730469 350.53125 C 303.238281 351.941406 300.84375 353.523438 298.300781 354.839844 C 294.519531 356.808594 290.449219 357.945312 286.210938 356.988281 C 282.050781 356.046875 278.40625 353.683594 274.65625 351.769531 C 255.722656 342.09375 237.226562 331.28125 220.1875 318.523438 C 216.78125 315.972656 213.4375 313.34375 210.164062 310.625 C 209.921875 310.421875 209.675781 310.21875 209.429688 310.011719 C 204.601562 305.96875 199.921875 301.75 195.414062 297.355469 C 195.414062 297.355469 207.832031 306.152344 213.539062 310.042969 C 227.710938 319.710938 235.40625 322.015625 246.726562 328.574219 C 256.261719 334.105469 276.792969 341.765625 287.796875 341.160156 C 299.152344 340.535156 351.179688 296.75 366.988281 282.527344 C 383.503906 267.671875 397.378906 251.585938 409.738281 233.046875 C 421.09375 216.015625 429.367188 196.492188 431.488281 176.015625 C 432.308594 168.101562 432.238281 160.078125 431.023438 152.207031" fill="#fb7400"></path></g><path fill-rule="nonzero" fill-opacity="1" d="M 25.085938 176.808594 C 18.085938 134.65625 59.527344 93.175781 101.6875 100.207031 C 61.976562 105.234375 30.082031 137.078125 25.085938 176.808594 Z M 25.085938 176.808594" fill="#fb7400"></path><g fill-opacity="1" fill="#081c3a"><g transform="translate(487.865347, 204.943123)"><g><path d="M 10.171875 -83.375 L 43.84375 0 L 49.28125 0 L 81.65625 -83.375 C 85.390625 -92.984375 89.109375 -96.703125 93.40625 -98.28125 L 93.40625 -100.28125 L 76.796875 -100.28125 L 76.796875 -98.28125 C 81.65625 -97.140625 82.671875 -92.984375 78.9375 -83.375 L 53.015625 -16.46875 L 26.640625 -83.375 C 22.921875 -92.984375 21.0625 -96.703125 25.78125 -98.28125 L 25.78125 -100.28125 L -0.578125 -100.28125 L -0.578125 -98.28125 C 2.71875 -96.703125 6.453125 -92.984375 10.171875 -83.375 Z M 10.171875 -83.375"></path></g></g></g><g fill-opacity="1" fill="#081c3a"><g transform="translate(580.69534, 204.943123)"><g><path d="M 4.015625 0 L 30.078125 0 L 30.078125 -2 C 25.359375 -3.578125 24.359375 -7.875 24.359375 -18.1875 L 24.359375 -71.78125 L 22.921875 -72.921875 L 4.015625 -64.609375 L 4.015625 -62.609375 C 7.59375 -61.03125 9.734375 -59.59375 9.734375 -51.140625 L 9.734375 -18.1875 C 9.734375 -7.875 8.734375 -3.578125 4.015625 -2 Z M 6.453125 -87.53125 C 6.453125 -82.09375 10.75 -77.796875 16.1875 -77.796875 C 21.640625 -77.796875 25.9375 -82.09375 25.9375 -87.53125 C 25.9375 -93.125 21.921875 -97.421875 16.1875 -97.421875 C 10.75 -97.421875 6.453125 -93.125 6.453125 -87.53125 Z M 6.453125 -87.53125"></path></g></g></g><g fill-opacity="1" fill="#081c3a"><g transform="translate(615.076821, 204.943123)"><g><path d="M 38.390625 1.4375 C 55.015625 1.4375 66.328125 -10.03125 72.921875 -20.0625 L 71.640625 -21.484375 C 65.609375 -14.75 57.453125 -10.171875 46.84375 -10.171875 C 28.65625 -10.171875 17.1875 -23.5 17.1875 -42.265625 C 17.1875 -43.84375 17.328125 -45.265625 17.484375 -46.84375 L 71.78125 -46.84375 C 71.78125 -59.3125 61.46875 -72.640625 42.125 -72.640625 C 23.5 -72.640625 4.4375 -57.453125 4.4375 -33.09375 C 4.4375 -9.890625 22.5 1.4375 38.390625 1.4375 Z M 17.625 -48.859375 C 19.34375 -60.03125 25.5 -70.203125 37.671875 -70.0625 C 47.5625 -69.90625 55.4375 -60.59375 57.3125 -48.859375 Z M 17.625 -48.859375"></path></g></g></g><g fill-opacity="1" fill="#081c3a"><g transform="translate(691.5756, 204.943123)"><g><path d="M 4.015625 0 L 30.078125 0 L 30.078125 -2 C 25.359375 -3.578125 24.359375 -7.875 24.359375 -18.1875 L 24.359375 -57.3125 C 32.09375 -63.609375 38.25 -66.90625 44.984375 -66.90625 C 55.59375 -66.90625 61.171875 -59.3125 61.171875 -46.421875 L 61.171875 -18.1875 C 61.171875 -7.875 60.171875 -3.578125 55.4375 -2 L 55.4375 0 L 81.515625 0 L 81.515625 -2 C 76.796875 -3.578125 75.78125 -7.875 75.78125 -18.1875 L 75.78125 -49 C 75.78125 -65.765625 66.90625 -72.640625 53.71875 -72.640625 C 42.546875 -72.640625 32.234375 -66.1875 24.359375 -59.734375 L 24.359375 -71.78125 L 22.921875 -72.921875 L 4.015625 -64.609375 L 4.015625 -62.609375 C 7.59375 -61.03125 9.734375 -59.59375 9.734375 -51.140625 L 9.734375 -18.1875 C 9.734375 -7.875 8.734375 -3.578125 4.015625 -2 Z M 4.015625 0"></path></g></g></g><g fill-opacity="1" fill="#081c3a"><g transform="translate(775.953477, 204.943123)"><g><path d="M 31.65625 1.140625 C 52.4375 1.140625 59.3125 -11.171875 59.3125 -22.0625 C 59.3125 -36.671875 46.703125 -40.109375 35.25 -43.984375 C 22.34375 -48.28125 15.1875 -51.71875 15.1875 -59.734375 C 15.1875 -65.90625 21.0625 -70.625 30.078125 -70.625 C 40.546875 -70.625 49.421875 -63.1875 54.296875 -53.015625 L 56.015625 -53.296875 L 55.296875 -69.046875 C 50.421875 -71.0625 41.6875 -72.640625 33.53125 -72.640625 C 14.046875 -72.640625 5.59375 -62.609375 5.59375 -51.71875 C 5.59375 -38.828125 14.90625 -34.671875 29.9375 -30.078125 C 42.40625 -26.21875 49.71875 -22.640625 49.71875 -13.46875 C 49.71875 -6.875 43.984375 -1 35.09375 -1.140625 C 22.34375 -1.296875 12.03125 -10.890625 5.875 -24.640625 L 4.4375 -24.359375 L 5.875 -5.59375 C 11.3125 -2 21.203125 1.140625 31.65625 1.140625 Z M 31.65625 1.140625"></path></g></g></g><g fill-opacity="1" fill="#081c3a"><g transform="translate(840.132232, 204.943123)"><g></g></g></g><g fill-opacity="1" fill="#081c3a"><g transform="translate(868.783469, 204.943123)"><g><path d="M 42.6875 1.4375 C 59.59375 1.4375 80.796875 -12.46875 80.796875 -36.96875 C 80.796875 -62.171875 60.453125 -72.640625 42.6875 -72.640625 C 23.0625 -72.640625 4.4375 -57.15625 4.4375 -33.953125 C 4.4375 -9.59375 24.0625 1.4375 42.6875 1.4375 Z M 18.765625 -44.703125 C 18.765625 -57.015625 22.921875 -68.484375 35.390625 -69.765625 C 53.875 -71.640625 66.328125 -44.265625 66.328125 -26.078125 C 66.328125 -13.890625 61.75 -1.71875 47.703125 -1.71875 C 28.796875 -1.71875 18.765625 -27.796875 18.765625 -44.703125 Z M 18.765625 -44.703125"></path></g></g></g><g fill-opacity="1" fill="#081c3a"><g transform="translate(955.453439, 204.943123)"><g><path d="M 4.015625 0 L 30.078125 0 L 30.078125 -2 C 25.359375 -3.578125 24.359375 -7.875 24.359375 -18.1875 L 24.359375 -57.3125 C 32.09375 -63.609375 38.25 -66.90625 44.984375 -66.90625 C 55.59375 -66.90625 61.171875 -59.3125 61.171875 -46.421875 L 61.171875 -18.1875 C 61.171875 -7.875 60.171875 -3.578125 55.4375 -2 L 55.4375 0 L 81.515625 0 L 81.515625 -2 C 76.796875 -3.578125 75.78125 -7.875 75.78125 -18.1875 L 75.78125 -49 C 75.78125 -65.765625 66.90625 -72.640625 53.71875 -72.640625 C 42.546875 -72.640625 32.234375 -66.1875 24.359375 -59.734375 L 24.359375 -71.78125 L 22.921875 -72.921875 L 4.015625 -64.609375 L 4.015625 -62.609375 C 7.59375 -61.03125 9.734375 -59.59375 9.734375 -51.140625 L 9.734375 -18.1875 C 9.734375 -7.875 8.734375 -3.578125 4.015625 -2 Z M 4.015625 0"></path></g></g></g><g fill-opacity="1" fill="#081c3a"><g transform="translate(569.544816, 320.033992)"><g><path d="M 30.234375 1.09375 C 50.0625 1.09375 56.640625 -10.671875 56.640625 -21.0625 C 56.640625 -35.015625 44.59375 -38.296875 33.65625 -42 C 21.34375 -46.09375 14.5 -49.390625 14.5 -57.046875 C 14.5 -62.921875 20.109375 -67.4375 28.734375 -67.4375 C 38.71875 -67.4375 47.1875 -60.328125 51.84375 -50.609375 L 53.484375 -50.890625 L 52.796875 -65.9375 C 48.15625 -67.84375 39.8125 -69.359375 32.015625 -69.359375 C 13.40625 -69.359375 5.328125 -59.78125 5.328125 -49.390625 C 5.328125 -37.078125 14.234375 -33.109375 28.59375 -28.734375 C 40.484375 -25.03125 47.46875 -21.609375 47.46875 -12.859375 C 47.46875 -6.5625 42 -0.953125 33.515625 -1.09375 C 21.34375 -1.234375 11.484375 -10.390625 5.609375 -23.53125 L 4.234375 -23.25 L 5.609375 -5.328125 C 10.8125 -1.921875 20.25 1.09375 30.234375 1.09375 Z M 30.234375 1.09375"></path></g></g></g><g fill-opacity="1" fill="#081c3a"><g transform="translate(630.825033, 320.033992)"><g><path d="M 4.109375 -62.25 L 4.78125 -60.875 C 12.859375 -63.75 22.703125 -74.140625 22.703125 -85.21875 C 22.703125 -93.15625 18.609375 -96.71875 12.859375 -96.71875 C 7.65625 -96.71875 4.375 -92.890625 4.375 -87.6875 C 4.375 -83.3125 7.65625 -80.03125 12.03125 -80.03125 C 13.265625 -80.03125 14.359375 -80.296875 15.453125 -80.578125 C 14.90625 -73.453125 11.21875 -65.65625 4.109375 -62.25 Z M 4.109375 -62.25"></path></g></g></g><g fill-opacity="1" fill="#081c3a"><g transform="translate(660.370855, 320.033992)"><g><path d="M 36.65625 1.375 C 52.53125 1.375 63.34375 -9.578125 69.625 -19.15625 L 68.40625 -20.515625 C 62.65625 -14.09375 54.859375 -9.71875 44.734375 -9.71875 C 27.359375 -9.71875 16.421875 -22.4375 16.421875 -40.359375 C 16.421875 -53.484375 24.078125 -65.25 35.984375 -67.03125 C 46.515625 -56.90625 52.671875 -52.671875 56.5 -52.671875 C 60.59375 -52.671875 65.796875 -57.3125 65.796875 -61.5625 C 65.796875 -65.390625 55.8125 -69.359375 41.171875 -69.359375 C 22.03125 -69.359375 4.234375 -54.578125 4.234375 -31.59375 C 4.234375 -10.390625 19.828125 1.375 36.65625 1.375 Z M 36.65625 1.375"></path></g></g></g><g fill-opacity="1" fill="#081c3a"><g transform="translate(732.593963, 320.033992)"><g><path d="M 40.765625 1.375 C 56.90625 1.375 77.15625 -11.90625 77.15625 -35.296875 C 77.15625 -59.375 57.734375 -69.359375 40.765625 -69.359375 C 22.03125 -69.359375 4.234375 -54.578125 4.234375 -32.421875 C 4.234375 -9.171875 22.984375 1.375 40.765625 1.375 Z M 17.921875 -42.6875 C 17.921875 -54.4375 21.890625 -65.390625 33.78125 -66.625 C 51.4375 -68.40625 63.34375 -42.265625 63.34375 -24.890625 C 63.34375 -13.265625 58.953125 -1.640625 45.546875 -1.640625 C 27.5 -1.640625 17.921875 -26.53125 17.921875 -42.6875 Z M 17.921875 -42.6875"></path></g></g></g><g fill-opacity="1" fill="#081c3a"><g transform="translate(815.349612, 320.033992)"><g><path d="M 3.828125 0 L 28.734375 0 L 28.734375 -1.921875 C 24.21875 -3.421875 23.25 -7.53125 23.25 -17.375 L 23.25 -54.71875 C 30.640625 -60.734375 36.53125 -63.890625 42.953125 -63.890625 C 53.078125 -63.890625 58.40625 -56.640625 58.40625 -44.328125 L 58.40625 -17.375 C 58.40625 -7.53125 57.453125 -3.421875 52.9375 -1.921875 L 52.9375 0 L 77.84375 0 L 77.84375 -1.921875 C 73.328125 -3.421875 72.359375 -7.53125 72.359375 -17.375 L 72.359375 -46.78125 C 72.359375 -62.796875 63.890625 -69.359375 51.296875 -69.359375 C 40.625 -69.359375 30.78125 -63.203125 23.25 -57.046875 L 23.25 -68.53125 L 21.890625 -69.625 L 3.828125 -61.703125 L 3.828125 -59.78125 C 7.25 -58.28125 9.296875 -56.90625 9.296875 -48.84375 L 9.296875 -17.375 C 9.296875 -7.53125 8.34375 -3.421875 3.828125 -1.921875 Z M 3.828125 0"></path></g></g></g><g fill-opacity="1" fill="#081c3a"><g transform="translate(895.916688, 320.033992)"><g><path d="M 3.828125 0 L 28.734375 0 L 28.734375 -1.921875 C 24.21875 -3.421875 23.25 -7.53125 23.25 -17.375 L 23.25 -54.71875 C 30.640625 -60.734375 36.53125 -63.890625 42.953125 -63.890625 C 53.078125 -63.890625 58.40625 -56.640625 58.40625 -44.328125 L 58.40625 -17.375 C 58.40625 -7.53125 57.453125 -3.421875 52.9375 -1.921875 L 52.9375 0 L 77.84375 0 L 77.84375 -1.921875 C 73.328125 -3.421875 72.359375 -7.53125 72.359375 -17.375 L 72.359375 -46.78125 C 72.359375 -62.796875 63.890625 -69.359375 51.296875 -69.359375 C 40.625 -69.359375 30.78125 -63.203125 23.25 -57.046875 L 23.25 -68.53125 L 21.890625 -69.625 L 3.828125 -61.703125 L 3.828125 -59.78125 C 7.25 -58.28125 9.296875 -56.90625 9.296875 -48.84375 L 9.296875 -17.375 C 9.296875 -7.53125 8.34375 -3.421875 3.828125 -1.921875 Z M 3.828125 0"></path></g></g></g><g fill-opacity="1" fill="#081c3a"><g transform="translate(976.483783, 320.033992)"><g><path d="M 56.09375 0 L 69.765625 0 L 69.765625 -1.921875 C 65.25 -3.421875 64.296875 -7.53125 64.296875 -17.375 L 64.296875 -43.78125 C 64.296875 -60.46875 56.5 -69.359375 39.9375 -69.359375 C 27.5 -69.359375 16.96875 -63.0625 9.296875 -53.625 L 10.671875 -52.390625 C 17.640625 -60.734375 25.171875 -64.015625 32.828125 -64.015625 C 42.953125 -64.015625 50.34375 -58.828125 50.609375 -45.28125 L 35.4375 -40.90625 C 18.46875 -36.109375 4.109375 -30.640625 4.109375 -16.546875 C 4.109375 -5.0625 12.578125 1.375 22.703125 1.375 C 36.9375 1.375 46.78125 -12.171875 50.609375 -28.046875 L 50.609375 -5.46875 C 50.609375 -1.921875 52.53125 0 56.09375 0 Z M 16.828125 -21.34375 C 16.828125 -32.6875 29.546875 -37.34375 35.984375 -39.125 L 50.609375 -43.359375 L 50.609375 -39.8125 C 50.484375 -27.5 42.953125 -8.625 29.546875 -8.625 C 23.25 -8.625 16.828125 -12.3125 16.828125 -21.34375 Z M 16.828125 -21.34375"></path></g></g></g><g fill-opacity="1" fill="#081c3a"><g transform="translate(1048.980451, 320.033992)"><g><path d="M 3.828125 0 L 28.734375 0 L 28.734375 -1.921875 C 24.21875 -3.421875 23.25 -7.53125 23.25 -17.375 L 23.25 -68.53125 L 21.890625 -69.625 L 3.828125 -61.703125 L 3.828125 -59.78125 C 7.25 -58.28125 9.296875 -56.90625 9.296875 -48.84375 L 9.296875 -17.375 C 9.296875 -7.53125 8.34375 -3.421875 3.828125 -1.921875 Z M -3.28125 -79.484375 L -2.1875 -78.515625 L 15.046875 -87.546875 L 32.828125 -78.515625 L 34.0625 -79.75 L 15.453125 -98.5 L 14.640625 -98.5 Z M -3.28125 -79.484375"></path></g></g></g><g fill-opacity="1" fill="#081c3a"><g transform="translate(1081.809163, 320.033992)"><g><path d="M 25.71875 1.375 C 33.921875 1.375 40.90625 -4.109375 48.15625 -12.453125 L 46.78125 -13.8125 C 42.265625 -8.203125 37.625 -6.984375 34.609375 -6.984375 C 28.59375 -6.984375 25.4375 -10.671875 25.4375 -19.15625 L 25.4375 -66.203125 L 46.09375 -66.203125 L 46.640625 -68.40625 L 25.4375 -68.40625 L 25.4375 -86.453125 L 23.25 -86.453125 L 2.734375 -68.40625 L 2.734375 -66.203125 L 11.484375 -66.203125 L 11.484375 -19.28125 C 11.484375 -4.515625 16.421875 1.375 25.71875 1.375 Z M 25.71875 1.375"></path></g></g></g></svg>