<svg xmlns="http://www.w3.org/2000/svg" xmlns:xlink="http://www.w3.org/1999/xlink" width="1080" zoomAndPan="magnify" viewBox="0 0 810 299.999988" height="400" preserveAspectRatio="xMidYMid meet" version="1.0"><defs><g/><clipPath id="d7a0cd82c7"><path d="M 123 85.316406 L 260.25 85.316406 L 260.25 207 L 123 207 Z M 123 85.316406 " clip-rule="nonzero"/></clipPath><clipPath id="d16cd864de"><path d="M 9.75 87 L 192 87 L 192 248 L 9.75 248 Z M 9.75 87 " clip-rule="nonzero"/></clipPath></defs><g fill="#050404" fill-opacity="1"><g transform="translate(273.336614, 212.925777)"><g><path d="M 81.640625 -130.484375 L 81.640625 -82.203125 C 74.9375 -90.78125 65.0625 -95.8125 51.453125 -95.8125 C 26.46875 -95.8125 5.96875 -74.375 5.96875 -46.59375 C 5.96875 -18.828125 26.46875 2.609375 51.453125 2.609375 C 65.0625 2.609375 74.9375 -2.421875 81.640625 -11 L 81.640625 0 L 105.6875 0 L 105.6875 -130.484375 Z M 55.921875 -20.3125 C 41.015625 -20.3125 30.015625 -30.9375 30.015625 -46.59375 C 30.015625 -62.265625 41.015625 -72.890625 55.921875 -72.890625 C 70.640625 -72.890625 81.640625 -62.265625 81.640625 -46.59375 C 81.640625 -30.9375 70.640625 -20.3125 55.921875 -20.3125 Z M 55.921875 -20.3125 "/></g></g></g><g fill="#050404" fill-opacity="1"><g transform="translate(390.019142, 212.925777)"><g><path d="M 72.515625 -93.203125 L 72.515625 -42.875 C 72.515625 -26.65625 63.75 -19.765625 52 -19.765625 C 41.203125 -19.765625 33.546875 -26.28125 33.546875 -38.953125 L 33.546875 -93.203125 L 9.5 -93.203125 L 9.5 -35.96875 C 9.5 -11.1875 24.984375 2.609375 44.734375 2.609375 C 57.234375 2.609375 66.921875 -2.046875 72.515625 -10.4375 L 72.515625 0 L 96.5625 0 L 96.5625 -93.203125 Z M 72.515625 -93.203125 "/></g></g></g><g fill="#050404" fill-opacity="1"><g transform="translate(497.568393, 212.925777)"><g><path d="M 96.9375 0 L 58.34375 -47.15625 L 95.8125 -93.203125 L 67.109375 -93.203125 L 35.046875 -52.1875 L 35.046875 -130.484375 L 11 -130.484375 L 11 0 L 35.046875 0 L 35.046875 -42.3125 L 68.96875 0 Z M 96.9375 0 "/></g></g></g><g fill="#050404" fill-opacity="1"><g transform="translate(595.425153, 212.925777)"><g><path d="M 96.9375 0 L 58.34375 -47.15625 L 95.8125 -93.203125 L 67.109375 -93.203125 L 35.046875 -52.1875 L 35.046875 -130.484375 L 11 -130.484375 L 11 0 L 35.046875 0 L 35.046875 -42.3125 L 68.96875 0 Z M 96.9375 0 "/></g></g></g><g fill="#050404" fill-opacity="1"><g transform="translate(693.281914, 212.925777)"><g><path d="M 81.828125 -93.203125 L 81.828125 -82.203125 C 75.125 -90.59375 65.0625 -95.8125 51.453125 -95.8125 C 26.65625 -95.8125 6.15625 -74.375 6.15625 -46.59375 C 6.15625 -18.828125 26.65625 2.609375 51.453125 2.609375 C 65.0625 2.609375 75.125 -2.609375 81.828125 -11 L 81.828125 0 L 105.875 0 L 105.875 -93.203125 Z M 55.921875 -20.3125 C 41.203125 -20.3125 30.203125 -30.9375 30.203125 -46.59375 C 30.203125 -62.265625 41.203125 -72.890625 55.921875 -72.890625 C 70.828125 -72.890625 81.828125 -62.265625 81.828125 -46.59375 C 81.828125 -30.9375 70.828125 -20.3125 55.921875 -20.3125 Z M 55.921875 -20.3125 "/></g></g></g><g clip-path="url(#d7a0cd82c7)"><path fill="#38b6ff" d="M 191.863281 85.667969 C 229.640625 85.667969 260.296875 110.074219 260.296875 140.1875 C 260.296875 152.992188 254.660156 164.375 245.457031 174.089844 C 241.75 177.996094 239.9375 183.578125 239.9375 189.386719 C 239.9375 196 242.628906 202.015625 246.960938 206.34375 C 236.277344 204.679688 227.183594 198.171875 221.988281 189.144531 C 212.90625 192.703125 202.683594 194.703125 191.867188 194.703125 C 154.101562 194.703125 123.46875 170.285156 123.46875 140.191406 C 123.464844 110.070312 154.101562 85.667969 191.863281 85.667969 Z M 191.863281 85.667969 " fill-opacity="1" fill-rule="nonzero"/></g><g clip-path="url(#d16cd864de)"><path fill="#2563eb" d="M 100.832031 87.28125 C 50.535156 87.28125 9.75 119.78125 9.75 159.855469 C 9.75 176.921875 17.253906 192.054688 29.488281 204.992188 C 34.421875 210.214844 36.859375 217.632812 36.859375 225.371094 C 36.859375 234.175781 33.277344 242.160156 27.496094 247.941406 C 41.730469 245.71875 53.824219 237.0625 60.753906 225.066406 C 72.855469 229.796875 86.441406 232.457031 100.832031 232.457031 C 151.148438 232.457031 191.933594 199.960938 191.933594 159.855469 C 191.933594 119.777344 151.148438 87.28125 100.832031 87.28125 Z M 100.832031 87.28125 " fill-opacity="1" fill-rule="nonzero"/></g><path fill="#1677d8" d="M 191.933594 159.855469 C 191.933594 133.710938 174.5625 110.796875 148.515625 98.019531 C 133.226562 108.019531 123.464844 123.195312 123.464844 140.191406 C 123.464844 167.398438 148.496094 189.960938 181.203125 194.046875 C 188.035156 183.859375 191.933594 172.21875 191.933594 159.855469 Z M 191.933594 159.855469 " fill-opacity="1" fill-rule="nonzero"/></svg>