<svg viewBox="0.00 0.00 708.00 216.00" version="1.1" xmlns="http://www.w3.org/2000/svg">
<path d="M 295.10 69.27
  C 291.36 112.94 249.36 150.00 216.06 174.31
  Q 204.49 182.75 194.31 188.30
  C 189.23 191.07 185.70 190.94 180.77 188.49
  C 162.99 179.67 145.14 168.92 130.57 155.64
  Q 123.11 148.84 131.11 155.01
  Q 141.66 163.14 155.85 170.09
  C 166.34 175.22 173.36 178.65 183.37 180.05
  C 188.69 180.79 193.25 177.41 197.57 174.34
  Q 219.14 159.03 237.73 142.23
  C 261.15 121.06 287.17 86.68 278.44 53.34
  C 270.88 24.45 241.38 12.58 215.01 25.25
  Q 209.49 27.90 203.77 29.99
  C 187.39 35.98 179.92 23.33 167.28 17.06
  C 151.72 9.34 131.12 9.82 116.71 20.81
  Q 116.41 21.04 116.18 21.03
  Q 116.02 21.03 115.90 20.95
  Q 115.59 20.76 115.84 20.49
  C 130.06 5.20 152.29 3.22 169.93 14.13
  C 180.29 20.53 187.44 26.68 199.54 19.78
  C 208.97 14.41 216.34 9.18 227.15 6.86
  C 233.00 5.60 241.82 5.41 247.97 6.41
  C 273.90 10.60 292.09 31.61 295.32 57.25
  Q 295.80 61.04 295.10 69.27
  Z" fill="#ff7e93"></path>
<path d="M 64.42 24.05
  C 39.22 28.72 20.12 47.11 15.97 72.35
  A 0.25 0.25 0.0 0 1 15.48 72.33
  C 13.40 45.50 36.80 20.75 64.41 23.83
  A 0.11 0.11 0.0 0 1 64.42 24.05
  Z" fill="#ff7e93"></path>
<path d="M 116.55 57.44
  C 136.66 37.99 169.66 33.39 189.54 56.19
  Q 200.31 68.53 198.84 86.24
  C 196.81 110.76 184.55 134.58 165.84 149.94
  Q 160.75 154.11 165.21 149.28
  Q 184.14 128.77 189.20 100.42
  Q 191.32 88.58 190.05 80.54
  C 187.54 64.68 174.48 53.82 158.32 53.24
  C 140.07 52.58 127.10 64.59 117.02 78.15
  A 0.87 0.87 0.0 0 1 115.64 78.18
  C 104.60 64.52 88.48 51.35 69.44 55.16
  C 58.31 57.39 49.74 64.15 46.02 74.78
  C 41.51 87.68 47.42 106.70 53.68 118.33
  C 76.24 160.25 121.67 186.99 165.10 203.29
  Q 165.41 203.41 165.17 203.65
  Q 165.03 203.78 164.75 203.72
  C 130.33 195.87 99.50 182.40 72.27 159.73
  C 50.20 141.36 31.23 113.88 30.43 84.51
  C 29.56 52.29 61.26 33.49 90.53 42.24
  Q 104.14 46.31 115.66 57.44
  Q 116.11 57.87 116.55 57.44
  Z" fill="#ff7e93"></path>
<path d="M 368.32 86.07
  A 0.24 0.24 0.0 0 0 368.77 86.07
  Q 376.46 66.57 383.82 46.82
  Q 385.28 42.89 382.01 41.26
  A 0.66 0.66 0.0 0 1 382.31 40.01
  L 390.75 40.00
  A 0.54 0.54 0.0 0 1 391.06 40.99
  C 386.56 44.06 385.44 47.49 383.52 52.37
  Q 375.04 73.97 367.01 94.81
  A 2.19 2.19 0.0 0 1 362.93 94.84
  Q 354.56 74.05 345.83 52.53
  C 343.68 47.24 342.61 44.11 338.85 41.23
  A 0.67 0.67 0.0 0 1 339.25 40.03
  L 352.94 39.99
  A 0.61 0.61 0.0 0 1 353.30 41.09
  Q 351.10 42.71 352.34 45.82
  Q 360.39 65.98 368.32 86.07
  Z" fill="#ffffff"></path>
<circle r="5.39" cy="47.13" cx="399.80" fill="#ffffff"></circle>
<path d="M 393.21 94.67
  C 397.74 92.44 396.26 75.16 396.23 70.54
  C 396.19 66.15 396.56 63.27 393.20 61.11
  A 0.73 0.73 0.0 0 1 393.30 59.83
  L 403.19 55.45
  A 0.80 0.79 -12.4 0 1 404.31 56.16
  Q 404.64 72.71 404.53 89.50
  Q 404.51 93.13 407.34 94.75
  A 0.67 0.67 0.0 0 1 407.01 96.00
  L 393.52 96.00
  A 0.70 0.70 0.0 0 1 393.21 94.67
  Z" fill="#ffffff"></path>
<path d="M 448.78 69.98
  L 420.46 70.01
  Q 419.97 70.01 419.91 70.50
  C 417.77 88.49 437.60 96.87 449.51 84.36
  A 0.59 0.58 83.6 0 1 450.42 85.09
  C 447.48 89.58 443.31 93.55 438.33 95.47
  C 428.76 99.15 417.19 94.66 413.70 84.45
  C 409.30 71.54 417.81 56.92 431.47 55.70
  C 440.44 54.89 448.56 59.19 449.95 68.62
  A 1.19 1.19 0.0 0 1 448.78 69.98
  Z
  M 420.60 68.78
  L 441.08 68.74
  A 0.28 0.28 0.0 0 0 441.36 68.46
  L 441.36 68.04
  A 10.86 10.47 89.9 0 0 430.87 57.20
  L 430.77 57.20
  A 10.86 10.47 89.9 0 0 420.32 68.08
  L 420.32 68.50
  A 0.28 0.28 0.0 0 0 420.60 68.78
  Z" fill="#ffffff"></path>
<path d="M 466.40 61.79
  A 0.43 0.43 0.0 0 0 467.10 62.11
  C 472.55 57.57 480.20 54.09 487.05 56.07
  C 494.44 58.20 495.01 64.54 494.95 71.82
  Q 494.87 81.12 495.30 90.42
  C 495.38 92.31 496.41 93.93 498.05 94.65
  A 0.71 0.70 56.8 0 1 497.77 96.00
  L 484.07 96.00
  A 0.62 0.62 0.0 0 1 483.77 94.83
  Q 486.41 93.36 486.50 89.93
  Q 486.91 73.89 486.69 68.53
  C 486.15 55.42 473.58 57.62 466.82 63.81
  Q 466.44 64.15 466.45 64.67
  Q 466.59 76.57 466.50 88.36
  C 466.48 91.25 466.90 93.56 469.49 94.81
  A 0.63 0.63 0.0 0 1 469.22 96.00
  L 455.52 96.00
  A 0.68 0.67 30.9 0 1 455.20 94.73
  Q 457.84 93.31 458.00 89.99
  C 458.36 82.50 458.00 75.04 458.30 67.56
  Q 458.47 63.48 455.20 61.01
  A 0.71 0.70 -38.5 0 1 455.34 59.80
  L 465.25 55.42
  A 0.70 0.70 0.0 0 1 466.23 56.04
  L 466.40 61.79
  Z" fill="#ffffff"></path>
<path d="M 529.81 66.30
  C 526.54 59.70 520.29 55.04 512.83 57.46
  C 508.38 58.90 506.92 62.84 509.82 66.67
  C 512.10 69.69 521.78 72.25 525.50 73.72
  Q 534.07 77.10 532.69 85.94
  C 530.59 99.34 512.89 97.85 503.98 93.51
  Q 503.02 93.05 502.94 91.99
  L 502.19 82.80
  A 0.63 0.63 0.0 0 1 503.41 82.52
  Q 507.00 91.91 516.48 95.02
  C 523.27 97.24 530.61 90.82 525.70 83.77
  C 523.68 80.88 511.93 77.74 510.04 76.97
  C 502.36 73.85 500.22 64.45 506.43 59.21
  C 512.34 54.23 522.96 54.81 530.23 57.38
  Q 530.66 57.54 530.68 57.99
  L 531.03 65.99
  A 0.64 0.64 0.0 0 1 529.81 66.30
  Z" fill="#ffffff"></path>
<path d="M 594.9195 67.3770
  A 21.52 20.52 -24.0 0 1 583.6062 94.8760
  A 21.52 20.52 -24.0 0 1 555.6005 84.8830
  A 21.52 20.52 -24.0 0 1 566.9138 57.3840
  A 21.52 20.52 -24.0 0 1 594.9195 67.3770
  Z
  M 574.18 57.34
  C 553.96 52.98 561.39 99.66 580.82 94.56
  C 595.49 90.71 586.61 60.01 574.18 57.34
  Z" fill="#ffffff"></path>
<path d="M 615.72 94.10
  Q 616.48 94.47 616.79 95.20
  A 0.58 0.58 0.0 0 1 616.25 96.00
  L 602.58 96.00
  A 0.64 0.64 0.0 0 1 602.31 94.79
  Q 604.90 93.56 605.10 90.43
  Q 605.84 78.48 605.30 66.51
  C 605.20 64.10 604.76 62.46 602.66 61.36
  A 0.90 0.90 0.0 0 1 602.71 59.74
  L 612.26 55.50
  A 0.87 0.86 -13.0 0 1 613.48 56.26
  L 613.65 62.00
  A 0.32 0.31 69.4 0 0 614.16 62.24
  C 619.37 57.88 626.76 54.41 633.37 55.79
  C 645.47 58.31 642.21 76.01 642.30 84.77
  C 642.36 89.61 641.96 92.63 645.47 95.00
  A 0.55 0.55 0.0 0 1 645.17 96.00
  L 631.25 96.00
  A 0.59 0.59 0.0 0 1 630.94 94.90
  Q 634.05 93.00 634.06 88.99
  Q 634.11 76.35 633.93 68.52
  C 633.64 55.47 621.24 57.87 614.33 63.55
  Q 613.45 64.27 613.59 65.12
  Q 613.73 65.96 613.73 66.02
  Q 613.75 78.23 613.77 90.44
  Q 613.77 91.26 614.98 93.40
  Q 615.24 93.87 615.72 94.10
  Z" fill="#ffffff"></path>
<path d="M 660.38 100.78
  L 670.46 111.08
  A 0.55 0.55 0.0 0 1 669.82 111.95
  L 660.29 107.02
  A 0.55 0.55 0.0 0 0 659.79 107.02
  L 650.78 111.68
  A 0.55 0.55 0.0 0 1 650.13 110.82
  L 659.59 100.79
  A 0.55 0.55 0.0 0 1 660.38 100.78
  Z" fill="#ffffff"></path>
<path d="M 424.26 105.66
  C 424.22 100.17 431.39 100.39 430.53 106.98
  Q 429.60 114.13 427.77 121.14
  A 0.30 0.29 -44.9 0 1 427.20 121.14
  C 426.06 116.74 424.29 110.07 424.26 105.66
  Z" fill="#ffffff"></path>
<path d="M 684.35 119.50
  Q 683.95 139.05 684.48 147.49
  C 684.68 150.70 687.73 152.32 690.71 151.91
  C 693.33 151.56 694.29 149.48 696.21 148.51
  A 0.47 0.47 0.0 0 1 696.78 149.23
  C 693.29 153.44 686.81 158.92 680.87 155.95
  Q 676.70 153.87 676.61 148.55
  Q 676.39 134.14 676.53 119.77
  Q 676.54 118.95 675.72 118.92
  L 671.71 118.79
  A 0.62 0.61 -64.6 0 1 671.33 117.71
  L 682.86 107.61
  Q 684.25 106.40 684.25 108.24
  L 684.25 117.00
  A 0.50 0.50 0.0 0 0 684.75 117.50
  L 695.74 117.50
  A 0.46 0.46 0.0 0 1 696.18 118.10
  Q 695.94 118.84 695.03 118.77
  Q 689.93 118.37 684.85 118.95
  Q 684.36 119.01 684.35 119.50
  Z" fill="#ffffff"></path>
<path d="M 392.19 122.44
  C 396.63 115.37 409.66 116.60 416.42 118.79
  Q 416.91 118.95 416.94 119.47
  L 417.30 127.25
  A 0.59 0.59 0.0 0 1 416.18 127.53
  Q 413.16 120.97 406.20 118.55
  C 401.82 117.03 392.39 120.49 396.31 126.90
  C 401.03 134.63 418.57 131.38 418.93 143.35
  C 419.39 159.04 400.53 158.56 390.76 153.20
  A 0.77 0.74 12.9 0 1 390.37 152.60
  L 389.56 143.19
  A 0.41 0.40 -69.9 0 1 390.25 142.87
  L 391.02 143.65
  A 0.16 0.08 26.6 0 1 391.05 143.69
  Q 393.84 150.13 398.84 153.14
  C 411.62 160.84 421.69 145.49 405.19 140.52
  C 401.03 139.27 395.77 137.76 392.83 134.89
  Q 387.59 129.77 392.19 122.44
  Z" fill="#ffffff"></path>
<path d="M 436.59 144.23
  C 432.94 132.48 440.30 119.38 452.98 117.41
  Q 460.86 116.19 468.11 119.21
  C 473.21 121.34 467.24 127.98 462.73 125.87
  C 460.28 124.72 456.40 121.34 454.05 118.93
  A 1.35 1.34 -30.4 0 0 452.69 118.58
  C 437.87 123.03 439.82 147.13 454.72 150.03
  Q 464.20 151.87 471.17 144.80
  A 0.49 0.49 0.0 0 1 471.80 144.75
  L 472.03 144.93
  Q 472.43 145.22 472.14 145.62
  C 469.04 149.84 465.17 153.83 460.18 155.54
  C 450.15 158.99 439.78 154.47 436.59 144.23
  Z" fill="#ffffff"></path>
<path d="M 515.7368 128.5417
  A 20.68 19.74 -23.9 0 1 504.8275 154.9674
  A 20.68 19.74 -23.9 0 1 477.9232 145.2983
  A 20.68 19.74 -23.9 0 1 488.8325 118.8726
  A 20.68 19.74 -23.9 0 1 515.7368 128.5417
  Z
  M 502.97 123.77
  C 497.83 117.00 486.41 116.53 484.74 126.48
  Q 482.53 139.60 490.51 150.06
  C 498.15 160.10 509.76 154.16 509.50 142.25
  Q 509.27 132.07 502.97 123.77
  Z" fill="#ffffff"></path>
<path d="M 533.61 123.24
  A 0.36 0.36 0.0 0 0 534.20 123.51
  C 542.95 115.94 560.35 112.05 561.04 129.39
  Q 561.45 139.62 561.35 149.74
  Q 561.31 153.44 564.18 154.86
  A 0.60 0.60 0.0 0 1 563.91 156.00
  L 550.73 156.00
  A 0.63 0.63 0.0 0 1 550.42 154.83
  Q 553.09 153.26 553.16 149.68
  Q 553.43 137.74 553.16 129.54
  C 552.74 116.91 540.42 119.38 533.92 125.11
  Q 533.55 125.44 533.54 125.94
  Q 533.32 138.00 533.80 149.99
  Q 533.94 153.32 536.55 154.91
  A 0.59 0.59 0.0 0 1 536.25 156.00
  L 523.00 156.00
  A 0.61 0.61 0.0 0 1 522.71 154.85
  Q 525.29 153.50 525.45 150.25
  Q 525.96 140.48 525.69 130.71
  C 525.59 127.14 526.12 124.51 522.71 122.33
  A 0.59 0.59 0.0 0 1 522.79 121.29
  L 532.54 116.95
  A 0.68 0.68 0.0 0 1 533.49 117.56
  L 533.61 123.24
  Z" fill="#ffffff"></path>
<path d="M 578.59 123.24
  A 0.38 0.38 0.0 0 0 579.22 123.52
  C 587.88 115.92 605.32 112.10 606.03 129.32
  Q 606.46 139.68 606.41 149.93
  Q 606.39 153.40 609.02 154.79
  A 0.64 0.64 0.0 0 1 608.72 156.00
  L 595.56 156.00
  A 0.59 0.59 0.0 0 1 595.28 154.90
  Q 598.18 153.31 598.24 149.43
  Q 598.40 139.49 598.12 129.54
  C 597.77 117.01 585.25 119.24 578.93 125.10
  Q 578.56 125.44 578.55 125.95
  Q 578.32 138.01 578.77 150.00
  Q 578.90 153.35 581.54 154.88
  A 0.60 0.60 0.0 0 1 581.24 156.00
  L 568.06 156.00
  A 0.64 0.64 0.0 0 1 567.76 154.80
  Q 570.51 153.32 570.63 149.76
  Q 571.00 138.59 570.75 127.43
  Q 570.67 124.13 567.76 122.47
  A 0.67 0.67 0.0 0 1 567.82 121.28
  L 577.54 116.96
  A 0.68 0.67 -12.5 0 1 578.49 117.56
  L 578.59 123.24
  Z" fill="#ffffff"></path>
<path d="M 638.60 142.14
  C 635.69 150.17 629.14 160.39 618.91 155.88
  C 609.46 151.71 612.33 140.02 620.80 136.58
  Q 629.45 133.06 638.56 130.75
  Q 639.06 130.63 639.05 130.11
  C 638.90 116.09 622.96 119.02 616.87 126.54
  Q 616.61 126.85 616.37 126.53
  Q 616.24 126.36 616.15 126.28
  Q 615.98 126.11 616.13 125.92
  C 624.85 114.77 646.72 111.48 646.68 131.46
  Q 646.66 140.62 647.11 149.78
  C 647.22 152.08 647.83 153.75 649.80 154.80
  A 0.64 0.64 0.0 0 1 649.50 156.00
  L 641.87 156.00
  A 2.62 2.62 0.0 0 1 639.25 153.38
  L 639.25 142.26
  A 0.34 0.33 55.2 0 0 638.60 142.14
  Z
  M 621.94 139.44
  C 618.61 144.98 620.83 151.02 627.40 151.07
  C 635.37 151.12 639.22 139.19 638.98 132.42
  Q 638.97 131.96 638.52 132.05
  C 633.72 133.04 624.39 135.35 621.94 139.44
  Z" fill="#ffffff"></path>
<path d="M 655.69 123.85
  L 653.62 122.31
  A 0.57 0.56 51.2 0 1 653.72 121.34
  L 663.47 116.97
  A 0.76 0.76 0.0 0 1 664.54 117.68
  Q 664.30 133.82 664.86 149.99
  Q 664.97 153.32 667.55 154.92
  A 0.58 0.58 0.0 0 1 667.24 156.00
  L 654.06 156.00
  A 0.64 0.64 0.0 0 1 653.76 154.80
  Q 656.41 153.40 656.55 150.00
  C 656.85 142.67 657.94 131.16 655.96 124.24
  A 0.75 0.75 0.0 0 0 655.69 123.85
  Z" fill="#ffffff"></path>
</svg>
