<svg version="1.2" xmlns="http://www.w3.org/2000/svg" viewBox="0 0 810 301" width="810" height="301">
	<title>logo_white</title>
	<defs>
		<clipPath clipPathUnits="userSpaceOnUse" id="cp1">
			<path d="m123 86.32h137.25v121.68h-137.25z"/>
		</clipPath>
		<clipPath clipPathUnits="userSpaceOnUse" id="cp2">
			<path d="m9.75 88h182.25v161h-182.25z"/>
		</clipPath>
	</defs>
	<style>
		.s0 { fill: #ffffff } 
		.s1 { fill: #38b6ff } 
		.s2 { fill: #efecec } 
	</style>
	<g>
		<g>
			<g>
				<path class="s0" d="m355 83.4v48.3c-6.7-8.6-16.6-13.6-30.2-13.6-25 0-45.5 21.5-45.5 49.2 0 27.8 20.5 49.2 45.5 49.2 13.6 0 23.5-5 30.2-13.6v11h24v-130.5zm-25.7 110.2c-14.9 0-25.9-10.6-25.9-26.3 0-15.6 11-26.3 25.9-26.3 14.7 0 25.7 10.7 25.7 26.3 0 15.7-11 26.3-25.7 26.3z"/>
			</g>
		</g>
	</g>
	<g>
		<g>
			<g>
				<path class="s0" d="m462.5 120.7v50.4c0 16.2-8.7 23.1-20.5 23.1-10.8 0-18.4-6.6-18.4-19.2v-54.3h-24.1v57.3c0 24.7 15.5 38.5 35.3 38.5 12.5 0 22.1-4.6 27.7-13v10.4h24.1v-93.2z"/>
			</g>
		</g>
	</g>
	<g>
		<g>
			<g>
				<path class="s0" d="m594.5 213.9l-38.6-47.1 37.5-46.1h-28.7l-32.1 41v-78.3h-24v130.5h24v-42.3l33.9 42.3z"/>
			</g>
		</g>
	</g>
	<g>
		<g>
			<g>
				<path class="s0" d="m692.4 213.9l-38.6-47.1 37.4-46.1h-28.7l-32 41v-78.3h-24.1v130.5h24.1v-42.3l33.9 42.3z"/>
			</g>
		</g>
	</g>
	<g>
		<g>
			<g>
				<path class="s0" d="m775.1 120.7v11c-6.7-8.4-16.8-13.6-30.4-13.6-24.8 0-45.3 21.5-45.3 49.2 0 27.8 20.5 49.2 45.3 49.2 13.6 0 23.7-5.2 30.4-13.6v11h24.1v-93.2zm-25.9 72.9c-14.8 0-25.8-10.6-25.8-26.3 0-15.6 11-26.3 25.8-26.3 14.9 0 25.9 10.7 25.9 26.3 0 15.7-11 26.3-25.9 26.3z"/>
			</g>
		</g>
	</g>
	<g id="Clip-Path" clip-path="url(#cp1)">
		<g>
			<path class="s1" d="m191.9 86.7c37.7 0 68.4 24.4 68.4 54.5 0 12.8-5.6 24.2-14.8 33.9-3.8 3.9-5.6 9.5-5.6 15.3 0 6.6 2.7 12.6 7.1 16.9-10.7-1.6-19.8-8.1-25-17.2-9.1 3.6-19.3 5.6-30.1 5.6-37.8 0-68.4-24.4-68.4-54.5 0-30.1 30.6-54.5 68.4-54.5z"/>
		</g>
	</g>
	<g id="Clip-Path" clip-path="url(#cp2)">
		<g>
			<path class="s0" d="m100.8 88.3c-50.3 0-91 32.5-91 72.6 0 17 7.5 32.2 19.7 45.1 4.9 5.2 7.4 12.6 7.4 20.4 0 8.8-3.6 16.8-9.4 22.5 14.2-2.2 26.3-10.8 33.3-22.8 12.1 4.7 25.6 7.4 40 7.4 50.3 0 91.1-32.5 91.1-72.6 0-40.1-40.8-72.6-91.1-72.6z"/>
		</g>
	</g>
	<path class="s2" d="m191.9 160.9c0-26.2-17.3-49.1-43.4-61.9-15.3 10-25 25.2-25 42.2 0 27.2 25 49.8 57.7 53.8 6.8-10.1 10.7-21.8 10.7-34.1z"/>
</svg>