<svg xmlns="http://www.w3.org/2000/svg" xmlns:xlink="http://www.w3.org/1999/xlink" width="500" zoomAndPan="magnify" viewBox="0 0 375 374.999991" height="500" preserveAspectRatio="xMidYMid meet" version="1.0"><defs><clipPath id="5dcde8b874"><path d="M 6.355469 114 L 178 114 L 178 280.714844 L 6.355469 280.714844 Z M 6.355469 114 " clip-rule="nonzero"/></clipPath><clipPath id="dd844eb138"><path d="M 198 93.964844 L 368.605469 93.964844 L 368.605469 262 L 198 262 Z M 198 93.964844 " clip-rule="nonzero"/></clipPath></defs><g clip-path="url(#5dcde8b874)"><path fill="#000000" d="M 42.269531 114.816406 L 147.980469 114.816406 C 172.742188 114.816406 177.902344 131.761719 177.386719 140.238281 L 177.386719 244.46875 C 175.152344 249.554688 167.480469 260.027344 154.6875 261.246094 C 141.894531 262.46875 134.566406 250.570312 132.503906 244.46875 L 132.503906 189.046875 L 39.128906 280.570312 C 32.597656 281.585938 17.773438 281.585938 10.757812 273.449219 C 3.742188 265.316406 7.832031 253.113281 10.757812 248.027344 L 102.066406 158.542969 L 44.804688 158.542969 C 39.300781 157.695312 28.195312 152.847656 27.78125 140.238281 C 27.390625 128.277344 34.550781 119.03125 40.277344 115.363281 C 40.867188 114.984375 41.5625 114.816406 42.269531 114.816406 Z M 42.269531 114.816406 " fill-opacity="1" fill-rule="nonzero"/></g><g clip-path="url(#dd844eb138)"><path fill="#ffffff" d="M 222.855469 114.816406 L 216.078125 114.816406 C 206.105469 114.816406 198.023438 122.78125 198.023438 132.609375 L 198.023438 238.875 C 198.023438 251.230469 208.183594 261.246094 220.71875 261.246094 L 326.476562 261.246094 C 338.441406 261.246094 348.144531 251.6875 348.144531 239.894531 C 348.144531 228.097656 338.441406 218.539062 326.476562 218.539062 L 274.371094 218.539062 L 362.214844 130.210938 C 370.136719 122.246094 370.074219 109.480469 362.070312 101.59375 L 360.785156 100.324219 C 352.117188 91.785156 338.046875 91.851562 329.46875 100.476562 L 241.355469 189.046875 L 241.355469 133.050781 C 241.355469 122.980469 233.070312 114.816406 222.855469 114.816406 Z M 222.855469 114.816406 " fill-opacity="1" fill-rule="nonzero"/></g></svg>